<svg width="78" height="80" viewBox="0 0 78 80" fill="none" xmlns="http://www.w3.org/2000/svg">
<g filter="url(#filter0_d_161_5)">
<rect x="9" y="5.06323" width="60" height="61.4599" fill="white"/>
</g>
<path d="M50.512 40.7741C49.7168 42.7004 48.473 44.3979 46.8894 45.7181C45.3057 47.0384 43.4305 47.9411 41.4276 48.3474C39.4247 48.7538 37.3551 48.6514 35.3997 48.0491C33.4444 47.4469 31.6628 46.3632 30.2108 44.8927C28.7588 43.4223 27.6805 41.6099 27.0703 39.614C26.4601 37.618 26.3365 35.4994 26.7103 33.4432C27.0841 31.3871 27.9439 29.456 29.2146 27.8189C30.4853 26.1818 32.1281 24.8884 33.9995 24.0519" stroke="#54BD95" stroke-width="2" stroke-linecap="round" stroke-linejoin="round"/>
<path d="M51.5 35.7931C51.5 34.1117 51.1767 32.4467 50.5485 30.8932C49.9203 29.3397 48.9996 27.9282 47.8388 26.7393C46.6781 25.5503 45.3001 24.6071 43.7835 23.9637C42.267 23.3202 40.6415 22.989 39 22.989V35.7931H51.5Z" stroke="#54BD95" stroke-width="2" stroke-linecap="round" stroke-linejoin="round"/>
<defs>
<filter id="filter0_d_161_5" x="0" y="0.0632324" width="78" height="79.4598" filterUnits="userSpaceOnUse" color-interpolation-filters="sRGB">
<feFlood flood-opacity="0" result="BackgroundImageFix"/>
<feColorMatrix in="SourceAlpha" type="matrix" values="0 0 0 0 0 0 0 0 0 0 0 0 0 0 0 0 0 0 127 0" result="hardAlpha"/>
<feOffset dy="4"/>
<feGaussianBlur stdDeviation="4.5"/>
<feComposite in2="hardAlpha" operator="out"/>
<feColorMatrix type="matrix" values="0 0 0 0 0 0 0 0 0 0 0 0 0 0 0 0 0 0 0.05 0"/>
<feBlend mode="normal" in2="BackgroundImageFix" result="effect1_dropShadow_161_5"/>
<feBlend mode="normal" in="SourceGraphic" in2="effect1_dropShadow_161_5" result="shape"/>
</filter>
</defs>
</svg>
