<svg width="78" height="80" viewBox="0 0 78 80" fill="none" xmlns="http://www.w3.org/2000/svg">
<g filter="url(#filter0_d_161_9)">
<rect x="9" y="5.39661" width="60" height="61.4599" fill="white"/>
</g>
<path d="M46.5 24.6028C45.5054 24.6028 44.5516 25.0075 43.8483 25.7279C43.1451 26.4482 42.75 27.4253 42.75 28.444V43.809C42.75 44.8277 43.1451 45.8048 43.8483 46.5252C44.5516 47.2455 45.5054 47.6502 46.5 47.6502C47.4946 47.6502 48.4484 47.2455 49.1517 46.5252C49.8549 45.8048 50.25 44.8277 50.25 43.809C50.25 42.7902 49.8549 41.8132 49.1517 41.0928C48.4484 40.3724 47.4946 39.9677 46.5 39.9677H31.5C30.5054 39.9677 29.5516 40.3724 28.8483 41.0928C28.1451 41.8132 27.75 42.7902 27.75 43.809C27.75 44.8277 28.1451 45.8048 28.8483 46.5252C29.5516 47.2455 30.5054 47.6502 31.5 47.6502C32.4946 47.6502 33.4484 47.2455 34.1517 46.5252C34.8549 45.8048 35.25 44.8277 35.25 43.809V28.444C35.25 27.4253 34.8549 26.4482 34.1517 25.7279C33.4484 25.0075 32.4946 24.6028 31.5 24.6028C30.5054 24.6028 29.5516 25.0075 28.8483 25.7279C28.1451 26.4482 27.75 27.4253 27.75 28.444C27.75 29.4628 28.1451 30.4398 28.8483 31.1602C29.5516 31.8806 30.5054 32.2853 31.5 32.2853H46.5C47.4946 32.2853 48.4484 31.8806 49.1517 31.1602C49.8549 30.4398 50.25 29.4628 50.25 28.444C50.25 27.4253 49.8549 26.4482 49.1517 25.7279C48.4484 25.0075 47.4946 24.6028 46.5 24.6028Z" stroke="#54BD95" stroke-width="2" stroke-linecap="round" stroke-linejoin="round"/>
<defs>
<filter id="filter0_d_161_9" x="0" y="0.396606" width="78" height="79.4598" filterUnits="userSpaceOnUse" color-interpolation-filters="sRGB">
<feFlood flood-opacity="0" result="BackgroundImageFix"/>
<feColorMatrix in="SourceAlpha" type="matrix" values="0 0 0 0 0 0 0 0 0 0 0 0 0 0 0 0 0 0 127 0" result="hardAlpha"/>
<feOffset dy="4"/>
<feGaussianBlur stdDeviation="4.5"/>
<feComposite in2="hardAlpha" operator="out"/>
<feColorMatrix type="matrix" values="0 0 0 0 0 0 0 0 0 0 0 0 0 0 0 0 0 0 0.05 0"/>
<feBlend mode="normal" in2="BackgroundImageFix" result="effect1_dropShadow_161_9"/>
<feBlend mode="normal" in="SourceGraphic" in2="effect1_dropShadow_161_9" result="shape"/>
</filter>
</defs>
</svg>
